<svg version="1" xmlns="http://www.w3.org/2000/svg" width="933.333" height="933.333" viewBox="0 0 700.000000 700.000000"><path d="M153 360.6c0 217.7.3 273.3 1.3 273.6 1 .3 57.5.2 62.9-.1 1.5-.1 1.6-7.4 1.7-93.9 0-51.5 0-95.8.1-98.3v-4.5l76.4-76.5 76.5-76.4.1-21.9.1-22-76.6-76.6L219 87.4h-66v273.2zm109.8-141.4c23.8 23.7 43.1 43.3 43 43.4-.2.2-19.8 19.8-43.5 43.7-31.3 31.3-43.3 42.8-43.3 41.3-.1-2.7-.1-161.6 0-167.4 0-2.3.2-4.2.3-4.2.2 0 19.8 19.4 43.5 43.2z"/><path d="M350 393.5L284.5 459l-.1 22v22l65.7 65.7 65.8 65.7 20.3.1c11.2.1 21.1-.2 22.1-.5s21.4-20.1 45.3-44l43.4-43.4v-43.4l-14.7-14.6-14.7-14.6-40 .2-40.1.3v25l-.1 25 21.8.5 21.7.5-21.7 21.7-21.7 21.6-43.8-43.7-43.7-43.7 41.4-41.5c22.8-22.8 42.5-42.4 43.8-43.7l2.5-2.2 21.6 21.6c11.9 12 21.9 21.5 22.2 21.3.2-.2 10.1-10.1 22-21.9l21.6-21.4-32.8-32.8-32.8-32.8h-44L350 393.5z"/></svg>